<svg width="430" height="333" viewBox="0 0 430 333" fill="none" xmlns="http://www.w3.org/2000/svg">
<g clip-path="url(#clip0_10_4)">
<path d="M425.562 244.112H79.4324C76.9829 244.112 74.9949 242.13 74.9949 239.689V119.402C74.9949 116.961 76.9829 114.98 79.4324 114.98H425.562C428.012 114.98 430 116.961 430 119.402V239.689C430 242.13 428.012 244.112 425.562 244.112Z" fill="#9B9B9B"/>
<path d="M310.381 195.908H311.659L315.866 184.499H317.233L321.44 195.908H322.718V196.934H318.724V195.908H320.161L318.972 192.707H314.109L312.937 195.908H314.375V196.934H310.381V195.908ZM318.635 191.663L316.771 186.568C316.629 186.162 316.576 185.772 316.576 185.772H316.523C316.523 185.772 316.487 186.162 316.345 186.568L314.446 191.663H318.635Z" fill="black"/>
<path d="M323.871 195.908H325.504V185.525H323.871V184.499H328.38V185.525H326.747V195.908H328.38V196.934H323.871V195.908Z" fill="black"/>
<path d="M334.734 195.908H336.367V185.525H334.734V184.499H340.414C341.178 184.499 341.959 184.57 342.544 184.853C343.769 185.401 344.55 186.639 344.55 188.231C344.55 189.947 343.663 191.274 342.278 191.769C341.692 191.964 341.107 192.017 340.432 192.017H337.61V195.908H339.243V196.934H334.734V195.908ZM340.308 190.955C340.894 190.955 341.391 190.885 341.817 190.708C342.74 190.336 343.29 189.452 343.29 188.231C343.29 187.099 342.811 186.285 341.994 185.861C341.55 185.666 340.965 185.56 340.308 185.56H337.61V190.955H340.308Z" fill="black"/>
<path d="M346.751 185.489H345.172V184.499H347.958V194.617C347.958 195.342 348.154 195.944 348.97 195.944C349.29 195.944 349.467 195.908 349.467 195.908V196.934C349.467 196.934 349.13 196.987 348.775 196.987C347.603 196.987 346.751 196.404 346.751 194.705V185.489Z" fill="black"/>
<path d="M356.035 191.486H356.621V191.115C356.621 189.452 355.715 188.868 354.473 188.868C352.964 188.868 351.881 189.735 351.881 189.735L351.313 188.833C351.313 188.833 352.52 187.824 354.544 187.824C356.709 187.824 357.828 188.974 357.828 191.168V195.555C357.828 195.82 357.97 195.944 358.218 195.944H359.194V196.934H357.739C356.976 196.934 356.674 196.598 356.674 195.961V195.802C356.674 195.378 356.727 195.112 356.727 195.112H356.692C356.692 195.112 355.928 197.147 353.639 197.147C352.183 197.147 350.656 196.315 350.656 194.493C350.656 191.61 354.526 191.486 356.035 191.486ZM353.816 196.156C355.609 196.156 356.621 194.369 356.621 192.813V192.388H356.106C355.378 192.388 351.899 192.317 351.899 194.369C351.899 195.289 352.574 196.156 353.816 196.156Z" fill="black"/>
<path d="M361.466 189.027H359.869V188.037H361.484V185.578H362.673V188.037H364.928V189.027H362.673V193.591C362.673 195.678 364.005 195.961 364.697 195.961C364.945 195.961 365.105 195.926 365.105 195.926V196.97C365.105 196.97 364.892 197.005 364.59 197.005C363.561 197.005 361.466 196.669 361.466 193.697V189.027Z" fill="black"/>
<path d="M366.383 195.944H367.892V189.027H366.294V188.037H367.892V187.577C367.892 184.764 369.88 184.41 370.803 184.41C371.247 184.41 371.531 184.463 371.531 184.463V185.507C371.531 185.507 371.3 185.454 370.927 185.454C370.324 185.454 369.099 185.666 369.099 187.559V188.037H371.371V189.027H369.099V195.944H370.874V196.934H366.383V195.944Z" fill="black"/>
<path d="M377.211 187.824C379.82 187.824 381.932 189.806 381.932 192.441C381.932 195.13 379.82 197.147 377.211 197.147C374.619 197.147 372.507 195.13 372.507 192.441C372.507 189.806 374.619 187.824 377.211 187.824ZM377.211 196.068C379.128 196.068 380.69 194.511 380.69 192.441C380.69 190.425 379.128 188.903 377.211 188.903C375.312 188.903 373.75 190.425 373.75 192.441C373.75 194.511 375.312 196.068 377.211 196.068Z" fill="black"/>
<path d="M383.566 195.944H384.95V189.416C384.95 189.151 384.808 189.027 384.56 189.027H383.353V188.037H385.039C385.784 188.037 386.122 188.337 386.122 189.045V189.646C386.122 190.018 386.086 190.319 386.086 190.319H386.122C386.565 188.974 387.559 187.948 388.944 187.948C389.192 187.948 389.441 188.001 389.441 188.001V189.186C389.441 189.186 389.21 189.151 388.979 189.151C386.974 189.151 386.157 191.398 386.157 193.167V195.944H387.542V196.934H383.566V195.944Z" fill="black"/>
<path d="M390.559 195.944H392.068V189.416C392.068 189.151 391.926 189.027 391.677 189.027H390.47V188.037H392.174C392.92 188.037 393.257 188.355 393.257 189.027V189.54C393.257 189.894 393.186 190.177 393.186 190.177H393.222C393.683 188.974 395.121 187.824 396.541 187.824C398.156 187.824 399.008 188.585 399.257 190.089H399.292C399.789 188.903 401.085 187.824 402.594 187.824C404.741 187.824 405.54 189.08 405.54 191.274V195.944H407.049V196.934H404.333V191.574C404.333 190.124 404.031 188.921 402.416 188.921C400.606 188.921 399.416 190.832 399.416 192.671V195.944H400.925V196.934H398.209V191.574C398.209 190.23 398.032 188.921 396.328 188.921C394.5 188.921 393.275 190.849 393.275 192.707V195.944H394.784V196.934H390.559V195.944Z" fill="black"/>
<path d="M292.435 124.709H97.1826V153.012H292.435V124.709Z" fill="#FF5700"/>
<path d="M166.258 134.217H168.219L170.19 139.188C170.42 139.78 170.704 140.656 170.704 140.656H170.731C170.731 140.656 170.997 139.78 171.228 139.188L173.198 134.217H175.16L175.967 144.265H174.148L173.722 138.648C173.677 137.985 173.704 137.092 173.704 137.092H173.677C173.677 137.092 173.376 138.065 173.136 138.648L171.503 142.54H169.897L168.273 138.648C168.033 138.065 167.722 137.074 167.722 137.074H167.696C167.696 137.074 167.722 137.976 167.678 138.648L167.252 144.265H165.424L166.258 134.217Z" fill="#6B6B6B"/>
<path d="M181.372 136.879C183.591 136.879 185.366 138.454 185.366 140.656C185.366 142.876 183.591 144.433 181.39 144.433C179.171 144.433 177.396 142.876 177.396 140.656C177.396 138.454 179.171 136.879 181.372 136.879ZM181.381 142.911C182.544 142.911 183.529 142.009 183.529 140.665C183.529 139.338 182.553 138.418 181.381 138.418C180.201 138.418 179.225 139.338 179.225 140.665C179.225 142.009 180.21 142.911 181.381 142.911Z" fill="#6B6B6B"/>
<path d="M186.804 137.056H188.534V138.303C188.534 138.569 188.508 138.816 188.508 138.816H188.534C188.863 137.782 189.724 136.959 190.833 136.959C191.002 136.959 191.161 136.986 191.161 136.986V138.754C191.161 138.754 190.975 138.728 190.735 138.728C189.963 138.728 189.102 139.17 188.756 140.24C188.641 140.594 188.597 140.992 188.597 141.417V144.273H186.795V137.056H186.804Z" fill="#6B6B6B"/>
<path d="M195.555 136.879C197.64 136.879 198.768 138.392 198.768 140.302C198.768 140.515 198.723 140.992 198.723 140.992H193.726C193.842 142.248 194.818 142.903 195.901 142.903C197.064 142.903 197.987 142.107 197.987 142.107L198.679 143.398C198.679 143.398 197.569 144.433 195.768 144.433C193.363 144.433 191.872 142.708 191.872 140.656C191.88 138.436 193.398 136.879 195.555 136.879ZM196.948 139.772C196.922 138.799 196.309 138.268 195.51 138.268C194.587 138.268 193.948 138.834 193.78 139.772H196.948Z" fill="#6B6B6B"/>
<path d="M200.258 134.217H202.06V137.702C202.06 138.056 202.033 138.312 202.033 138.312H202.06C202.415 137.622 203.294 136.879 204.563 136.879C206.169 136.879 207.074 137.711 207.074 139.63V144.273H205.282V140.002C205.282 139.126 205.051 138.533 204.128 138.533C203.178 138.533 202.442 139.152 202.167 140.037C202.078 140.32 202.051 140.629 202.051 140.974V144.291H200.25V134.217H200.258Z" fill="#6B6B6B"/>
<path d="M212.693 134.217H214.53V144.265H212.693V134.217Z" fill="#6B6B6B"/>
<path d="M217.086 134.217H220.343C221.435 134.217 221.932 134.306 222.375 134.5C223.387 134.951 224.026 135.915 224.026 137.242C224.026 138.445 223.387 139.568 222.322 139.993V140.019C222.322 140.019 222.464 140.161 222.659 140.514L224.736 144.265H222.695L220.689 140.514H218.932V144.265H217.095V134.217H217.086ZM220.565 138.931C221.541 138.931 222.153 138.348 222.153 137.348C222.153 136.384 221.745 135.791 220.307 135.791H218.914V138.931H220.565Z" fill="#6B6B6B"/>
<path d="M292.435 158.319H97.1826V200.773H292.435V158.319Z" fill="#FF5700"/>
<path d="M133.704 167.827H135.665L137.644 172.797C137.875 173.39 138.159 174.274 138.159 174.274H138.186C138.186 174.274 138.452 173.399 138.683 172.797L140.653 167.827H142.614L143.422 177.874H141.603L141.177 172.258C141.132 171.594 141.159 170.701 141.159 170.701H141.132C141.132 170.701 140.83 171.674 140.591 172.258L138.958 176.149H137.351L135.736 172.258C135.497 171.674 135.186 170.683 135.186 170.683H135.159C135.159 170.683 135.186 171.586 135.141 172.258L134.715 177.874H132.887L133.704 167.827Z" fill="#6B6B6B"/>
<path d="M148.818 170.489C151.037 170.489 152.812 172.063 152.812 174.266C152.812 176.486 151.037 178.042 148.836 178.042C146.617 178.042 144.842 176.486 144.842 174.266C144.842 172.063 146.617 170.489 148.818 170.489ZM148.827 176.521C149.99 176.521 150.975 175.619 150.975 174.274C150.975 172.948 149.998 172.028 148.827 172.028C147.647 172.028 146.67 172.948 146.67 174.274C146.67 175.619 147.655 176.521 148.827 176.521Z" fill="#6B6B6B"/>
<path d="M154.25 170.666H155.98V171.913C155.98 172.178 155.954 172.426 155.954 172.426H155.98C156.309 171.391 157.17 170.569 158.279 170.569C158.448 170.569 158.607 170.595 158.607 170.595V172.364C158.607 172.364 158.421 172.337 158.181 172.337C157.409 172.337 156.548 172.78 156.202 173.85C156.087 174.204 156.042 174.602 156.042 175.026V177.883H154.241V170.666H154.25Z" fill="#6B6B6B"/>
<path d="M163.001 170.489C165.086 170.489 166.213 172.001 166.213 173.912C166.213 174.124 166.169 174.602 166.169 174.602H161.172C161.288 175.858 162.264 176.512 163.347 176.512C164.509 176.512 165.432 175.716 165.432 175.716L166.125 177.007C166.125 177.007 165.015 178.042 163.214 178.042C160.808 178.042 159.317 176.318 159.317 174.266C159.326 172.046 160.844 170.489 163.001 170.489ZM164.394 173.381C164.367 172.408 163.755 171.878 162.956 171.878C162.033 171.878 161.394 172.444 161.226 173.381H164.394Z" fill="#6B6B6B"/>
<path d="M167.704 167.827H169.506V171.311C169.506 171.665 169.479 171.922 169.479 171.922H169.506C169.861 171.232 170.74 170.489 172.009 170.489C173.615 170.489 174.521 171.32 174.521 173.24V177.883H172.728V173.611C172.728 172.735 172.497 172.143 171.574 172.143C170.624 172.143 169.888 172.762 169.613 173.646C169.524 173.929 169.497 174.239 169.497 174.584V177.901H167.696V167.827H167.704Z" fill="#6B6B6B"/>
<path d="M185.153 175.309H181.612L180.76 177.883H178.869L182.419 167.836H184.336L187.886 177.883H185.996L185.153 175.309ZM183.378 169.569C183.378 169.569 183.147 170.56 182.952 171.126L182.055 173.814H184.7L183.804 171.126C183.617 170.56 183.404 169.569 183.404 169.569H183.378Z" fill="#6B6B6B"/>
<path d="M189.182 167.827H191.019V177.874H189.182V167.827Z" fill="#6B6B6B"/>
<path d="M201.51 167.659C203.968 167.659 205.228 169.03 205.228 169.03L204.35 170.392C204.35 170.392 203.196 169.33 201.59 169.33C199.46 169.33 198.208 170.913 198.208 172.789C198.208 174.699 199.504 176.388 201.607 176.388C203.356 176.388 204.536 175.115 204.536 175.115L205.504 176.432C205.504 176.432 204.11 178.06 201.536 178.06C198.457 178.06 196.327 175.778 196.327 172.824C196.327 169.896 198.545 167.659 201.51 167.659Z" fill="#6B6B6B"/>
<path d="M210.349 170.489C212.568 170.489 214.343 172.063 214.343 174.266C214.343 176.486 212.568 178.042 210.367 178.042C208.148 178.042 206.373 176.486 206.373 174.266C206.364 172.063 208.139 170.489 210.349 170.489ZM210.358 176.521C211.521 176.521 212.506 175.619 212.506 174.274C212.506 172.948 211.53 172.028 210.358 172.028C209.178 172.028 208.202 172.948 208.202 174.274C208.202 175.619 209.178 176.521 210.358 176.521Z" fill="#6B6B6B"/>
<path d="M215.781 170.666H217.512V171.497C217.512 171.763 217.485 171.992 217.485 171.992H217.512C217.867 171.285 218.736 170.489 219.872 170.489C220.982 170.489 221.692 171.002 221.985 171.975H222.011C222.411 171.196 223.343 170.489 224.488 170.489C225.996 170.489 226.857 171.338 226.857 173.24V177.883H225.056V173.576C225.056 172.753 224.896 172.134 224.062 172.134C223.138 172.134 222.526 172.868 222.313 173.779C222.242 174.062 222.224 174.372 222.224 174.717V177.883H220.423V173.576C220.423 172.797 220.298 172.134 219.446 172.134C218.506 172.134 217.902 172.868 217.671 173.788C217.6 174.053 217.583 174.381 217.583 174.708V177.874H215.781V170.666Z" fill="#6B6B6B"/>
<path d="M228.748 170.666H230.398V171.188C230.398 171.453 230.372 171.683 230.372 171.683H230.398C230.398 171.683 231.02 170.498 232.724 170.498C234.685 170.498 235.936 172.046 235.936 174.274C235.936 176.565 234.534 178.051 232.626 178.051C231.188 178.051 230.549 177.06 230.549 177.06H230.523C230.523 177.06 230.549 177.317 230.549 177.68V180.704H228.748V170.666ZM232.298 176.539C233.292 176.539 234.117 175.734 234.117 174.301C234.117 172.93 233.38 172.037 232.315 172.037C231.375 172.037 230.496 172.718 230.496 174.319C230.496 175.433 231.108 176.539 232.298 176.539Z" fill="#6B6B6B"/>
<path d="M237.427 167.827H239.22V169.428H237.427V167.827ZM237.427 170.666H239.229V177.883H237.427V170.666Z" fill="#6B6B6B"/>
<path d="M241.119 167.827H242.912V175.362C242.912 176.158 243.178 176.353 243.649 176.353C243.791 176.353 243.915 176.335 243.915 176.335V177.91C243.915 177.91 243.649 177.954 243.347 177.954C242.353 177.954 241.119 177.697 241.119 175.636V167.827Z" fill="#6B6B6B"/>
<path d="M248.415 170.489C250.501 170.489 251.628 172.001 251.628 173.912C251.628 174.124 251.583 174.602 251.583 174.602H246.587C246.702 175.858 247.678 176.512 248.761 176.512C249.924 176.512 250.847 175.716 250.847 175.716L251.539 177.007C251.539 177.007 250.43 178.042 248.628 178.042C246.223 178.042 244.732 176.318 244.732 174.266C244.732 172.046 246.258 170.489 248.415 170.489ZM249.808 173.381C249.782 172.408 249.169 171.878 248.37 171.878C247.447 171.878 246.808 172.444 246.64 173.381H249.808Z" fill="#6B6B6B"/>
<path d="M253.119 170.666H254.849V171.913C254.849 172.178 254.823 172.426 254.823 172.426H254.849C255.178 171.391 256.038 170.569 257.148 170.569C257.316 170.569 257.476 170.595 257.476 170.595V172.364C257.476 172.364 257.29 172.337 257.05 172.337C256.278 172.337 255.417 172.78 255.071 173.85C254.956 174.204 254.911 174.602 254.911 175.026V177.883H253.11V170.666H253.119Z" fill="#6B6B6B"/>
<path d="M292.435 206.08H97.1826V234.383H292.435V206.08Z" fill="#FF5700"/>
<path d="M169.888 215.588H171.849L173.819 220.558C174.05 221.151 174.334 222.027 174.334 222.027H174.361C174.361 222.027 174.627 221.151 174.858 220.558L176.828 215.588H178.789L179.597 225.635H177.778L177.352 220.019C177.307 219.355 177.334 218.462 177.334 218.462H177.307C177.307 218.462 177.006 219.435 176.766 220.019L175.133 223.91H173.527L171.902 220.019C171.663 219.435 171.352 218.444 171.352 218.444H171.325C171.325 218.444 171.352 219.347 171.308 220.019L170.882 225.635H169.053L169.888 215.588Z" fill="#6B6B6B"/>
<path d="M185.002 218.25C187.221 218.25 188.996 219.824 188.996 222.027C188.996 224.247 187.221 225.803 185.02 225.803C182.801 225.803 181.026 224.247 181.026 222.027C181.017 219.824 182.792 218.25 185.002 218.25ZM185.011 224.282C186.173 224.282 187.159 223.38 187.159 222.035C187.159 220.709 186.182 219.789 185.011 219.789C183.83 219.789 182.854 220.709 182.854 222.035C182.854 223.38 183.83 224.282 185.011 224.282Z" fill="#6B6B6B"/>
<path d="M190.718 215.588H194.152C197.259 215.588 199.291 217.427 199.291 220.603C199.291 223.778 197.259 225.644 194.152 225.644H190.718V215.588ZM194.055 224.07C196.096 224.07 197.41 222.867 197.41 220.603C197.41 218.365 196.078 217.162 194.055 217.162H192.546V224.07H194.055Z" fill="#6B6B6B"/>
<path d="M201.217 215.588H203.054L206.879 221.39C207.261 221.973 207.713 222.946 207.713 222.946H207.74C207.74 222.946 207.642 221.982 207.642 221.39V215.588H209.453V225.635H207.634L203.808 219.842C203.427 219.258 202.974 218.285 202.974 218.285H202.948C202.948 218.285 203.045 219.249 203.045 219.842V225.635H201.208V215.588H201.217Z" fill="#6B6B6B"/>
<path d="M212.009 215.588H213.846L217.671 221.39C218.053 221.973 218.506 222.946 218.506 222.946H218.532C218.532 222.946 218.435 221.982 218.435 221.39V215.588H220.254V225.635H218.435L214.609 219.842C214.228 219.258 213.775 218.285 213.775 218.285H213.749C213.749 218.285 213.846 219.249 213.846 219.842V225.635H212.009V215.588Z" fill="#6B6B6B"/>
<path d="M18.1939 303.371C16.2324 303.371 14.6438 301.787 14.6438 299.833V282.143C14.6438 280.189 16.2324 278.606 18.1939 278.606H94.52C96.4814 278.606 98.07 280.189 98.07 282.143V299.833C98.07 301.787 96.4814 303.371 94.52 303.371H18.1939Z" fill="#9B9B9B"/>
<path d="M94.52 279.49C95.9844 279.49 97.1826 280.684 97.1826 282.143V299.833C97.1826 301.292 95.9844 302.486 94.52 302.486H18.1939C16.7295 302.486 15.5314 301.292 15.5314 299.833V282.143C15.5314 280.684 16.7295 279.49 18.1939 279.49H94.52ZM94.52 277.721H18.1939C15.7444 277.721 13.7563 279.702 13.7563 282.143V299.833C13.7563 302.274 15.7444 304.255 18.1939 304.255H94.52C96.9696 304.255 98.9576 302.274 98.9576 299.833V282.143C98.9576 279.702 96.9696 277.721 94.52 277.721Z" fill="#DD0030"/>
<path d="M33.6189 293.058H30.1044L29.1103 295.835H28.2051L31.409 287.123H32.332L35.5359 295.835H34.6307L33.6189 293.058ZM31.8528 288.025C31.8528 288.025 31.6664 288.741 31.5155 289.148L30.344 292.306H33.3527L32.2078 289.148C32.0569 288.741 31.8705 288.025 31.8705 288.025H31.8528Z" fill="#DD0030"/>
<path d="M37.382 287.123H38.2784L40.5682 292.244C40.7635 292.686 40.9942 293.305 40.9942 293.305H41.0208C41.0208 293.305 41.2605 292.686 41.4557 292.244L43.7455 287.123H44.633L45.3253 295.835H44.4644L43.9763 289.741C43.9408 289.272 43.9496 288.529 43.9496 288.529H43.923C43.923 288.529 43.6656 289.299 43.4615 289.741L41.4114 294.216H40.6037L38.5536 289.741C38.3583 289.308 38.0832 288.503 38.0832 288.503H38.0566C38.0566 288.503 38.0654 289.272 38.0299 289.741L37.5418 295.835H36.6809L37.382 287.123Z" fill="#DD0030"/>
<path d="M47.5706 287.123H50.3928C53.0199 287.123 54.7772 288.724 54.7772 291.474C54.7772 294.252 53.011 295.835 50.3928 295.835H47.5706V287.123ZM50.3041 295.065C52.4519 295.065 53.8808 293.801 53.8808 291.474C53.8808 289.157 52.443 287.892 50.3041 287.892H48.4226V295.065H50.3041Z" fill="#DD0030"/>
<path d="M63.9185 286.973C65.942 286.973 67.0248 287.99 67.0248 287.99L66.5633 288.635C66.5633 288.635 65.5427 287.769 63.954 287.769C61.8417 287.769 60.4128 289.387 60.4128 291.457C60.4128 293.597 61.895 295.189 63.883 295.189C65.587 295.189 66.6343 293.916 66.6343 293.916V292.439H65.1433V291.669H67.4508V295.835H66.652V295.18C66.652 294.995 66.6609 294.809 66.6609 294.809H66.6343C66.6343 294.809 65.6314 295.985 63.7854 295.985C61.398 295.985 59.5076 294.066 59.5076 291.475C59.5164 288.963 61.4068 286.973 63.9185 286.973Z" fill="#DD0030"/>
<path d="M69.5188 287.123H72.5363C74.0984 287.123 75.2344 288.14 75.2344 289.75C75.2344 291.368 74.1072 292.412 72.5363 292.412H70.3797V295.835H69.5188V287.123ZM72.4298 291.651C73.6014 291.651 74.3557 290.944 74.3557 289.759C74.3557 288.582 73.6014 287.901 72.4387 287.901H70.3797V291.651H72.4298Z" fill="#DD0030"/>
<path d="M76.8408 287.123H77.7106V292.783C77.7106 294.278 78.678 295.189 80.1867 295.189C81.6955 295.189 82.6718 294.287 82.6718 292.757V287.123H83.5327V292.801C83.5327 294.738 82.1748 295.985 80.2045 295.985C78.2165 295.985 76.8497 294.738 76.8497 292.801V287.123H76.8408Z" fill="#DD0030"/>
<path d="M310.186 174.027H311.845L312.697 163.652H310.993V162.202H314.774L318.191 170.303C318.395 170.852 318.493 171.267 318.493 171.267H318.528C318.528 171.267 318.626 170.852 318.83 170.303L322.247 162.202H326.028V163.652H324.324L325.176 174.027H326.835V175.495H321.697V174.027H323.303L322.7 166.075C322.682 165.66 322.753 164.979 322.753 164.979H322.7C322.7 164.979 322.549 165.616 322.398 165.996L319.336 172.983H317.676L314.614 165.996C314.463 165.616 314.313 164.979 314.313 164.979H314.259C314.259 164.979 314.33 165.66 314.313 166.075L313.709 174.027H315.315V175.495H310.177V174.027H310.186Z" fill="#040000"/>
<path d="M341.923 174.027H343.592V163.652H341.923V162.202H347.71C348.651 162.202 349.432 162.237 350.168 162.485C351.57 162.953 352.493 164.121 352.493 165.934C352.493 167.853 351.437 169.233 349.733 169.666V169.702C349.733 169.702 350.071 169.888 350.301 170.321L352.192 173.602C352.396 173.956 352.644 174.036 353.115 174.036H353.514V175.504H352.378C351.242 175.504 350.976 175.3 350.523 174.504L348.464 170.869C348.127 170.303 347.878 170.135 347.062 170.135H345.473V174.036H347.115V175.504H341.914V174.027H341.923ZM348.154 168.587C349.609 168.587 350.576 167.641 350.576 166.084C350.576 165.05 350.159 164.333 349.325 163.997C348.89 163.829 348.322 163.749 347.683 163.749H345.473V168.587H348.154Z" fill="#040000"/>
<path d="M354.712 174.027H356.381V163.652H354.712V162.202H364.377V165.288H362.726V163.749H358.271V168.021H362.993V169.569H358.271V173.956H363.046V172.355H364.697V175.495H354.712V174.027Z" fill="#040000"/>
<path d="M366.285 174.027H367.945V163.652H366.285V162.202H371.522V163.652H369.835V168.074H376.749V163.652H375.072V162.202H380.308V163.652H378.64V174.027H380.308V175.495H375.072V174.027H376.749V169.622H369.835V174.027H371.522V175.495H366.285V174.027Z" fill="#040000"/>
<path d="M336.278 158.319H334.503V160.088H336.278V158.319Z" fill="#E95719"/>
<path d="M336.243 163.263V161.83H334.468C330.536 161.83 327.35 165.005 327.35 168.923C327.35 172.842 330.536 176.017 334.468 176.017H336.243V175.132V174.248H338.018V173.231V172.479H339.793V170.71V168.941V167.172V165.403H338.018V164.519V163.634H336.243V163.263Z" fill="#E95719"/>
<path d="M339.793 161.83H338.018V163.599H339.793V161.83Z" fill="#E95719"/>
<path d="M341.577 160.052H339.802V161.821H341.577V160.052Z" fill="#E95719"/>
<path d="M110.495 303.371C108.534 303.371 106.945 301.787 106.945 299.833V282.143C106.945 280.189 108.534 278.606 110.495 278.606H186.821C188.783 278.606 190.372 280.189 190.372 282.143V299.833C190.372 301.787 188.783 303.371 186.821 303.371H110.495Z" fill="#9B9B9B"/>
<path d="M186.822 279.49C188.286 279.49 189.484 280.684 189.484 282.143V299.833C189.484 301.292 188.286 302.486 186.822 302.486H110.495C109.031 302.486 107.833 301.292 107.833 299.833V282.143C107.833 280.684 109.031 279.49 110.495 279.49H186.822ZM186.822 277.721H110.495C108.046 277.721 106.058 279.702 106.058 282.143V299.833C106.058 302.274 108.046 304.255 110.495 304.255H186.822C189.271 304.255 191.259 302.274 191.259 299.833V282.143C191.259 279.702 189.271 277.721 186.822 277.721Z" fill="#77B900"/>
<path d="M115.004 287.123H115.838L120.302 293.394C120.604 293.827 121.021 294.57 121.021 294.57H121.048C121.048 294.57 120.977 293.854 120.977 293.394V287.123H121.838V295.835H121.003L116.539 289.564C116.238 289.131 115.82 288.388 115.82 288.388H115.794C115.794 288.388 115.865 289.104 115.865 289.564V295.835H115.004V287.123Z" fill="#92E500"/>
<path d="M123.24 287.123H124.163L126.586 293.739C126.746 294.181 126.923 294.862 126.923 294.862H126.95C126.95 294.862 127.127 294.181 127.287 293.739L129.71 287.123H130.633L127.385 295.835H126.488L123.24 287.123Z" fill="#92E500"/>
<path d="M132.035 287.123H132.896V295.835H132.035V287.123Z" fill="#92E500"/>
<path d="M135.426 287.123H138.248C140.875 287.123 142.632 288.724 142.632 291.474C142.632 294.252 140.866 295.835 138.248 295.835H135.426V287.123ZM138.159 295.065C140.307 295.065 141.736 293.801 141.736 291.474C141.736 289.157 140.298 287.892 138.159 287.892H136.278V295.065H138.159Z" fill="#92E500"/>
<path d="M144.62 287.123H145.481V295.835H144.62V287.123Z" fill="#92E500"/>
<path d="M152.324 293.058H148.809L147.815 295.835H146.91L150.114 287.123H151.037L154.241 295.835H153.336L152.324 293.058ZM150.558 288.025C150.558 288.025 150.371 288.741 150.22 289.148L149.049 292.306H152.057L150.913 289.148C150.762 288.741 150.575 288.025 150.575 288.025H150.558Z" fill="#92E500"/>
<path d="M162.823 286.973C164.847 286.973 165.93 287.99 165.93 287.99L165.468 288.635C165.468 288.635 164.447 287.769 162.859 287.769C160.746 287.769 159.318 289.387 159.318 291.457C159.318 293.597 160.8 295.189 162.788 295.189C164.492 295.189 165.539 293.916 165.539 293.916V292.439H164.048V291.669H166.364V295.835H165.566V295.18C165.566 294.995 165.574 294.809 165.574 294.809H165.548C165.548 294.809 164.545 295.985 162.699 295.985C160.312 295.985 158.421 294.066 158.421 291.475C158.421 288.963 160.312 286.973 162.823 286.973Z" fill="#92E500"/>
<path d="M168.423 287.123H171.441C173.003 287.123 174.139 288.14 174.139 289.75C174.139 291.368 173.012 292.412 171.441 292.412H169.275V295.835H168.415V287.123H168.423ZM171.334 291.651C172.506 291.651 173.26 290.944 173.26 289.759C173.26 288.582 172.506 287.901 171.343 287.901H169.275V291.651H171.334Z" fill="#92E500"/>
<path d="M175.745 287.123H176.615V292.783C176.615 294.278 177.583 295.189 179.091 295.189C180.6 295.189 181.576 294.287 181.576 292.757V287.123H182.437V292.801C182.437 294.738 181.079 295.985 179.109 295.985C177.121 295.985 175.754 294.738 175.754 292.801V287.123H175.745Z" fill="#92E500"/>
<path d="M202.797 303.371C200.835 303.371 199.247 301.787 199.247 299.833V282.143C199.247 280.189 200.835 278.606 202.797 278.606H279.123C281.084 278.606 282.673 280.189 282.673 282.143V299.833C282.673 301.787 281.084 303.371 279.123 303.371H202.797Z" fill="#9B9B9B"/>
<path d="M279.123 279.49C280.587 279.49 281.785 280.684 281.785 282.143V299.833C281.785 301.292 280.587 302.486 279.123 302.486H202.797C201.332 302.486 200.134 301.292 200.134 299.833V282.143C200.134 280.684 201.332 279.49 202.797 279.49H279.123ZM279.123 277.721H202.797C200.347 277.721 198.359 279.702 198.359 282.143V299.833C198.359 302.274 200.347 304.255 202.797 304.255H279.123C281.572 304.255 283.56 302.274 283.56 299.833V282.143C283.56 279.702 281.572 277.721 279.123 277.721Z" fill="#0081C6"/>
<path d="M215.204 287.123H216.065V295.835H215.204V287.123Z" fill="#0081C6"/>
<path d="M218.346 289.599H219.18V290.528C219.18 290.802 219.154 291.023 219.154 291.023H219.18C219.402 290.457 220.201 289.449 221.683 289.449C223.227 289.449 223.769 290.325 223.769 291.864V295.826H222.926V292.085C222.926 291.103 222.775 290.236 221.568 290.236C220.503 290.236 219.58 290.97 219.296 291.996C219.225 292.253 219.198 292.545 219.198 292.837V295.826H218.355V289.599H218.346Z" fill="#0081C6"/>
<path d="M225.952 290.387H225.135V289.679H225.97V287.884H226.804V289.679H228.366V290.387H226.804V293.482C226.804 294.942 227.736 295.127 228.206 295.127C228.384 295.127 228.49 295.101 228.49 295.101V295.853C228.49 295.853 228.357 295.879 228.126 295.879C227.408 295.879 225.952 295.64 225.952 293.562V290.387Z" fill="#0081C6"/>
<path d="M232.528 289.458C234.259 289.458 235.138 290.785 235.138 292.332C235.138 292.483 235.111 292.766 235.111 292.766H230.31C230.345 294.367 231.437 295.233 232.732 295.233C233.877 295.233 234.632 294.482 234.632 294.482L235.013 295.127C235.013 295.127 234.108 295.994 232.697 295.994C230.833 295.994 229.431 294.659 229.431 292.739C229.44 290.679 230.833 289.458 232.528 289.458ZM234.277 292.067C234.223 290.767 233.434 290.157 232.502 290.157C231.454 290.157 230.549 290.811 230.354 292.067H234.277Z" fill="#0081C6"/>
<path d="M236.682 287.123H237.525V294.172C237.525 294.986 237.898 295.11 238.217 295.11C238.333 295.11 238.43 295.101 238.43 295.101V295.853C238.43 295.853 238.279 295.879 238.12 295.879C237.596 295.879 236.682 295.72 236.682 294.358V287.123Z" fill="#0081C6"/>
<path d="M247.226 286.973C249.249 286.973 250.332 287.99 250.332 287.99L249.87 288.635C249.87 288.635 248.85 287.769 247.261 287.769C245.149 287.769 243.72 289.387 243.72 291.457C243.72 293.597 245.202 295.189 247.19 295.189C248.894 295.189 249.941 293.916 249.941 293.916V292.439H248.45V291.669H250.767V295.835H249.968V295.18C249.968 294.995 249.977 294.809 249.977 294.809H249.95C249.95 294.809 248.947 295.985 247.101 295.985C244.714 295.985 242.823 294.066 242.823 291.475C242.823 288.963 244.714 286.973 247.226 286.973Z" fill="#0081C6"/>
<path d="M252.826 287.123H255.843C257.405 287.123 258.541 288.14 258.541 289.75C258.541 291.368 257.414 292.412 255.843 292.412H253.678V295.835H252.817V287.123H252.826ZM255.737 291.651C256.908 291.651 257.663 290.944 257.663 289.759C257.663 288.582 256.908 287.901 255.746 287.901H253.678V291.651H255.737Z" fill="#0081C6"/>
<path d="M260.148 287.123H261.017V292.783C261.017 294.278 261.985 295.189 263.494 295.189C265.002 295.189 265.979 294.287 265.979 292.757V287.123H266.84V292.801C266.84 294.738 265.482 295.985 263.511 295.985C261.523 295.985 260.157 294.738 260.157 292.801V287.123H260.148Z" fill="#0081C6"/>
<path d="M295.098 303.371C293.136 303.371 291.548 301.787 291.548 299.833V282.143C291.548 280.189 293.136 278.606 295.098 278.606H371.424C373.385 278.606 374.974 280.189 374.974 282.143V299.833C374.974 301.787 373.385 303.371 371.424 303.371H295.098Z" fill="#9B9B9B"/>
<path d="M371.424 279.49C372.888 279.49 374.087 280.684 374.087 282.143V299.833C374.087 301.292 372.888 302.486 371.424 302.486H295.098C293.634 302.486 292.435 301.292 292.435 299.833V282.143C292.435 280.684 293.634 279.49 295.098 279.49H371.424ZM371.424 277.721H295.098C292.648 277.721 290.66 279.702 290.66 282.143V299.833C290.66 302.274 292.648 304.255 295.098 304.255H371.424C373.874 304.255 375.862 302.274 375.862 299.833V282.143C375.862 279.702 373.874 277.721 371.424 277.721Z" fill="#FF5700"/>
<path d="M321.635 287.123H322.469L326.933 293.394C327.235 293.827 327.652 294.57 327.652 294.57H327.679C327.679 294.57 327.608 293.854 327.608 293.394V287.123H328.469V295.835H327.634L323.17 289.564C322.868 289.131 322.451 288.388 322.451 288.388H322.425C322.425 288.388 322.496 289.104 322.496 289.564V295.835H321.635V287.123Z" fill="#FF5700"/>
<path d="M330.998 287.123H334.016C335.578 287.123 336.714 288.14 336.714 289.75C336.714 291.368 335.587 292.412 334.016 292.412H331.85V295.835H330.989V287.123H330.998ZM333.9 291.651C335.072 291.651 335.826 290.944 335.826 289.759C335.826 288.582 335.072 287.901 333.909 287.901H331.841V291.651H333.9Z" fill="#FF5700"/>
<path d="M338.311 287.123H339.181V292.783C339.181 294.278 340.148 295.189 341.657 295.189C343.166 295.189 344.142 294.287 344.142 292.757V287.123H345.003V292.801C345.003 294.738 343.645 295.985 341.675 295.985C339.687 295.985 338.32 294.738 338.32 292.801V287.123H338.311Z" fill="#FF5700"/>
<path d="M384.737 332.558H4.88141C2.44075 332.558 0.443848 330.568 0.443848 328.135V273.299C0.443848 270.867 2.44075 268.876 4.88141 268.876H384.737C387.178 268.876 389.175 270.867 389.175 273.299V328.135C389.175 330.568 387.178 332.558 384.737 332.558Z" stroke="#555555" stroke-miterlimit="10" stroke-dasharray="2 2"/>
<path d="M129.683 190.61H126.675L125.823 192.99H125.042L127.784 185.534H128.574L131.316 192.99H130.535L129.683 190.61ZM128.175 186.303C128.175 186.303 128.015 186.922 127.891 187.267L126.888 189.974H129.462L128.485 187.267C128.361 186.913 128.201 186.303 128.201 186.303H128.175Z" fill="#E6E6E6"/>
<path d="M132.266 187.656H132.994V190.858C132.994 191.698 133.118 192.441 134.157 192.441C135.381 192.441 136.136 191.371 136.136 190.212V187.656H136.863V192.99H136.162V192.194C136.162 191.964 136.18 191.769 136.18 191.769H136.162C135.949 192.291 135.248 193.113 134.068 193.113C132.807 193.113 132.284 192.432 132.284 191.044V187.656H132.266Z" fill="#E6E6E6"/>
<path d="M138.798 188.32H138.097V187.718H138.807V186.179H139.517V187.718H140.857V188.32H139.517V190.973C139.517 192.229 140.316 192.388 140.724 192.388C140.875 192.388 140.973 192.37 140.973 192.37V193.016C140.973 193.016 140.857 193.034 140.662 193.034C140.041 193.034 138.798 192.83 138.798 191.053V188.32Z" fill="#E6E6E6"/>
<path d="M144.603 187.524C146.165 187.524 147.434 188.709 147.434 190.292C147.434 191.902 146.165 193.113 144.603 193.113C143.041 193.113 141.771 191.902 141.771 190.292C141.771 188.718 143.041 187.524 144.603 187.524ZM144.603 192.468C145.756 192.468 146.688 191.53 146.688 190.292C146.688 189.08 145.748 188.178 144.603 188.178C143.458 188.178 142.517 189.08 142.517 190.292C142.517 191.539 143.458 192.468 144.603 192.468Z" fill="#E6E6E6"/>
<path d="M149.022 189.646H152.049V190.301H149.022V189.646Z" fill="#E6E6E6"/>
<path d="M154.028 187.656H154.72V188.178C154.72 188.408 154.702 188.594 154.702 188.594H154.72C154.72 188.594 155.155 187.532 156.575 187.532C158.013 187.532 158.909 188.682 158.909 190.336C158.909 192.026 157.897 193.122 156.513 193.122C155.226 193.122 154.756 192.105 154.756 192.105H154.738C154.738 192.105 154.756 192.3 154.756 192.574V195.121H154.028V187.656ZM156.433 192.477C157.383 192.477 158.155 191.681 158.155 190.327C158.155 189.018 157.462 188.187 156.46 188.187C155.563 188.187 154.729 188.824 154.729 190.336C154.729 191.406 155.332 192.477 156.433 192.477Z" fill="#E6E6E6"/>
<path d="M163.143 189.691H163.445V189.549C163.445 188.523 162.877 188.169 162.113 188.169C161.226 188.169 160.605 188.682 160.605 188.682L160.267 188.134C160.267 188.134 160.968 187.532 162.175 187.532C163.462 187.532 164.172 188.24 164.172 189.576V192.99H163.48V192.406C163.48 192.141 163.498 191.964 163.498 191.964H163.48C163.48 191.964 163.036 193.122 161.696 193.122C160.8 193.122 159.877 192.6 159.877 191.539C159.868 189.735 162.22 189.691 163.143 189.691ZM161.803 192.503C162.823 192.503 163.445 191.442 163.445 190.522V190.292H163.134C162.291 190.292 160.613 190.327 160.613 191.504C160.613 191.99 161.004 192.503 161.803 192.503Z" fill="#E6E6E6"/>
<path d="M165.841 187.656H166.551V188.603C166.551 188.833 166.533 189.027 166.533 189.027H166.551C166.808 188.222 167.403 187.603 168.246 187.603C168.397 187.603 168.53 187.639 168.53 187.639V188.346C168.53 188.346 168.406 188.329 168.264 188.329C167.509 188.329 166.941 188.921 166.71 189.708C166.604 190.044 166.56 190.407 166.56 190.752V192.998H165.832V187.656H165.841Z" fill="#E6E6E6"/>
<path d="M172.47 189.691H172.772V189.549C172.772 188.523 172.204 188.169 171.441 188.169C170.553 188.169 169.932 188.682 169.932 188.682L169.595 188.134C169.595 188.134 170.296 187.532 171.503 187.532C172.79 187.532 173.5 188.24 173.5 189.576V192.99H172.808V192.406C172.808 192.141 172.825 191.964 172.825 191.964H172.808C172.808 191.964 172.364 193.122 171.024 193.122C170.127 193.122 169.204 192.6 169.204 191.539C169.195 189.735 171.547 189.691 172.47 189.691ZM171.13 192.503C172.151 192.503 172.772 191.442 172.772 190.522V190.292H172.462C171.618 190.292 169.941 190.327 169.941 191.504C169.941 191.99 170.332 192.503 171.13 192.503Z" fill="#E6E6E6"/>
<path d="M175.115 185.534H175.843V191.566C175.843 192.264 176.163 192.371 176.438 192.371C176.535 192.371 176.615 192.362 176.615 192.362V193.007C176.615 193.007 176.491 193.025 176.349 193.025C175.905 193.025 175.115 192.884 175.115 191.716V185.534Z" fill="#E6E6E6"/>
<path d="M177.751 185.534H178.479V191.566C178.479 192.264 178.798 192.371 179.074 192.371C179.171 192.371 179.251 192.362 179.251 192.362V193.007C179.251 193.007 179.127 193.025 178.985 193.025C178.541 193.025 177.751 192.884 177.751 191.716V185.534Z" fill="#E6E6E6"/>
<path d="M182.695 187.524C184.177 187.524 184.931 188.656 184.931 189.982C184.931 190.106 184.913 190.354 184.913 190.354H180.804C180.84 191.725 181.771 192.468 182.881 192.468C183.857 192.468 184.505 191.822 184.505 191.822L184.833 192.371C184.833 192.371 184.052 193.113 182.854 193.113C181.257 193.113 180.059 191.964 180.059 190.327C180.059 188.576 181.248 187.524 182.695 187.524ZM184.203 189.761C184.159 188.647 183.476 188.125 182.677 188.125C181.78 188.125 181.008 188.691 180.84 189.761H184.203Z" fill="#E6E6E6"/>
<path d="M186.271 185.534H186.999V191.566C186.999 192.264 187.318 192.371 187.594 192.371C187.691 192.371 187.771 192.362 187.771 192.362V193.007C187.771 193.007 187.647 193.025 187.505 193.025C187.061 193.025 186.271 192.884 186.271 191.716V185.534Z" fill="#E6E6E6"/>
<path d="M188.934 185.534H189.688V186.436H188.934V185.534ZM188.952 187.656H189.679V192.99H188.952V187.656Z" fill="#E6E6E6"/>
<path d="M190.993 192.521L193.984 188.78C194.188 188.523 194.41 188.293 194.41 188.293V188.275C194.41 188.275 194.232 188.293 193.877 188.293H191.117V187.656H195.386V188.134L192.395 191.866C192.191 192.123 191.96 192.353 191.96 192.353V192.37C191.96 192.37 192.156 192.353 192.502 192.353H195.493V192.99H190.993V192.521Z" fill="#E6E6E6"/>
<path d="M199.06 187.524C200.542 187.524 201.297 188.656 201.297 189.982C201.297 190.106 201.279 190.354 201.279 190.354H197.17C197.205 191.725 198.137 192.468 199.247 192.468C200.223 192.468 200.871 191.822 200.871 191.822L201.199 192.371C201.199 192.371 200.418 193.113 199.22 193.113C197.623 193.113 196.424 191.964 196.424 190.327C196.415 188.576 197.614 187.524 199.06 187.524ZM200.56 189.761C200.516 188.647 199.832 188.125 199.034 188.125C198.137 188.125 197.365 188.691 197.196 189.761H200.56Z" fill="#E6E6E6"/>
<path d="M202.681 187.656H203.391V188.603C203.391 188.833 203.374 189.027 203.374 189.027H203.391C203.649 188.222 204.244 187.603 205.087 187.603C205.238 187.603 205.371 187.639 205.371 187.639V188.346C205.371 188.346 205.246 188.329 205.104 188.329C204.35 188.329 203.782 188.921 203.551 189.708C203.445 190.044 203.4 190.407 203.4 190.752V192.998H202.673V187.656H202.681Z" fill="#E6E6E6"/>
<path d="M210.465 188.965V188.948C210.465 188.948 209.418 188.62 209.418 187.294C209.418 186.144 210.305 185.41 211.663 185.41C212.027 185.41 212.515 185.516 212.515 185.516L212.302 186.135C212.302 186.135 211.947 186.064 211.681 186.064C210.838 186.064 210.181 186.542 210.181 187.347C210.181 187.842 210.394 188.691 211.787 188.691H213.367V187.639H214.104V188.691H215.116V189.346H214.104V190.442C214.104 192.229 213.127 193.122 211.628 193.122C210.128 193.122 209.107 192.176 209.107 190.938C209.098 190.071 209.595 189.231 210.465 188.965ZM211.628 192.424C212.684 192.424 213.376 191.84 213.376 190.407V189.337H211.796C210.5 189.337 209.861 189.956 209.861 190.885C209.861 191.734 210.518 192.424 211.628 192.424Z" fill="#E6E6E6"/>
<path d="M221.816 187.524C223.378 187.524 224.647 188.709 224.647 190.292C224.647 191.902 223.378 193.113 221.816 193.113C220.254 193.113 218.985 191.902 218.985 190.292C218.985 188.718 220.254 187.524 221.816 187.524ZM221.816 192.468C222.97 192.468 223.902 191.53 223.902 190.292C223.902 189.08 222.961 188.178 221.816 188.178C220.671 188.178 219.731 189.08 219.731 190.292C219.731 191.539 220.662 192.468 221.816 192.468Z" fill="#E6E6E6"/>
<path d="M226.005 187.656H226.697V188.178C226.697 188.408 226.68 188.594 226.68 188.594H226.697C226.697 188.594 227.132 187.532 228.552 187.532C229.99 187.532 230.886 188.682 230.886 190.336C230.886 192.026 229.875 193.122 228.49 193.122C227.203 193.122 226.733 192.105 226.733 192.105H226.715C226.715 192.105 226.733 192.3 226.733 192.574V195.121H226.005V187.656ZM228.41 192.477C229.36 192.477 230.132 191.681 230.132 190.327C230.132 189.018 229.44 188.187 228.437 188.187C227.541 188.187 226.706 188.824 226.706 190.336C226.706 191.406 227.301 192.477 228.41 192.477Z" fill="#E6E6E6"/>
<path d="M232.475 188.32H231.774V187.718H232.484V186.179H233.194V187.718H234.534V188.32H233.194V190.973C233.194 192.229 233.993 192.388 234.392 192.388C234.543 192.388 234.641 192.37 234.641 192.37V193.016C234.641 193.016 234.525 193.034 234.33 193.034C233.709 193.034 232.466 192.83 232.466 191.053V188.32H232.475Z" fill="#E6E6E6"/>
<path d="M235.821 185.534H236.575V186.436H235.821V185.534ZM235.848 187.656H236.575V192.99H235.848V187.656Z" fill="#E6E6E6"/>
<path d="M238.315 187.656H239.025V188.452C239.025 188.682 239.007 188.877 239.007 188.877H239.025C239.282 188.152 240.134 187.532 240.96 187.532C241.954 187.532 242.46 187.992 242.619 188.868H242.637C242.921 188.143 243.702 187.532 244.607 187.532C245.903 187.532 246.382 188.284 246.382 189.602V192.998H245.655V189.788C245.655 188.921 245.477 188.196 244.492 188.196C243.676 188.196 243.001 188.921 242.797 189.699C242.726 189.929 242.699 190.186 242.699 190.478V192.998H241.972V189.788C241.972 188.983 241.856 188.196 240.844 188.196C239.975 188.196 239.309 188.948 239.087 189.761C239.034 189.982 239.016 190.23 239.016 190.469V192.99H238.288V187.656H238.315Z" fill="#E6E6E6"/>
<path d="M248.051 185.534H248.805V186.436H248.051V185.534ZM248.069 187.656H248.797V192.99H248.069V187.656Z" fill="#E6E6E6"/>
<path d="M250.119 192.521L253.11 188.78C253.314 188.523 253.536 188.293 253.536 188.293V188.275C253.536 188.275 253.358 188.293 253.003 188.293H250.243V187.656H254.512V188.134L251.521 191.866C251.317 192.123 251.086 192.353 251.086 192.353V192.37C251.086 192.37 251.282 192.353 251.628 192.353H254.619V192.99H250.119V192.521Z" fill="#E6E6E6"/>
<path d="M258.177 187.524C259.66 187.524 260.414 188.656 260.414 189.982C260.414 190.106 260.396 190.354 260.396 190.354H256.287C256.323 191.725 257.254 192.468 258.364 192.468C259.34 192.468 259.988 191.822 259.988 191.822L260.316 192.371C260.316 192.371 259.535 193.113 258.337 193.113C256.74 193.113 255.542 191.964 255.542 190.327C255.533 188.576 256.731 187.524 258.177 187.524ZM259.677 189.761C259.633 188.647 258.95 188.125 258.151 188.125C257.254 188.125 256.482 188.691 256.314 189.761H259.677Z" fill="#E6E6E6"/>
<path d="M261.799 187.656H262.509V188.603C262.509 188.833 262.491 189.027 262.491 189.027H262.509C262.766 188.222 263.361 187.603 264.204 187.603C264.355 187.603 264.488 187.639 264.488 187.639V188.346C264.488 188.346 264.364 188.329 264.222 188.329C263.467 188.329 262.899 188.921 262.668 189.708C262.562 190.044 262.518 190.407 262.518 190.752V192.998H261.79V187.656H261.799Z" fill="#E6E6E6"/>
<path d="M287.998 97.2908H101.62C99.1795 97.2908 97.1826 95.3008 97.1826 92.8685V73.4103C97.1826 70.9781 99.1795 68.988 101.62 68.988H287.998C290.439 68.988 292.435 70.9781 292.435 73.4103V92.8685C292.435 95.3008 290.439 97.2908 287.998 97.2908Z" stroke="#FF5700" stroke-width="2" stroke-miterlimit="10" stroke-dasharray="2 2"/>
<path d="M118.927 85.9786C118.927 85.9786 120.018 87.0399 121.438 87.0399C122.202 87.0399 122.903 86.6419 122.903 85.8194C122.903 84.0239 118.146 84.3335 118.146 81.2467C118.146 79.5751 119.592 78.328 121.527 78.328C123.515 78.328 124.536 79.407 124.536 79.407L123.737 80.8929C123.737 80.8929 122.77 80.0173 121.509 80.0173C120.657 80.0173 119.992 80.5126 119.992 81.2202C119.992 83.0068 124.74 82.5646 124.74 85.7751C124.74 87.376 123.515 88.7204 121.412 88.7204C119.166 88.7204 117.933 87.3495 117.933 87.3495L118.927 85.9786Z" fill="#6B6B6B"/>
<path d="M126.284 78.5049H128.077V80.1058H126.284V78.5049ZM126.284 81.3352H128.086V88.5524H126.284V81.3352Z" fill="#6B6B6B"/>
<path d="M130.074 81.3352H131.804V82.1666C131.804 82.4319 131.778 82.6618 131.778 82.6618H131.804C132.115 82.0516 132.914 81.1583 134.378 81.1583C135.985 81.1583 136.89 81.9897 136.89 83.9089V88.5524H135.097V84.2804C135.097 83.4048 134.866 82.8034 133.943 82.8034C132.976 82.8034 132.266 83.4136 132 84.2804C131.902 84.5811 131.875 84.8995 131.875 85.2445V88.5612H130.074V81.3352Z" fill="#6B6B6B"/>
<path d="M141.514 89.994C142.623 89.994 143.564 89.5253 143.564 88.234V87.8094C143.564 87.6414 143.591 87.4291 143.591 87.4291H143.564C143.138 88.0659 142.517 88.402 141.549 88.402C139.473 88.402 138.292 86.7304 138.292 84.7492C138.292 82.768 139.41 81.1494 141.505 81.1494C143.085 81.1494 143.653 82.0693 143.653 82.0693H143.697C143.697 82.0693 143.679 81.9808 143.679 81.8747V81.3263H145.366V88.1101C145.366 90.5866 143.431 91.5242 141.541 91.5242C140.635 91.5242 139.668 91.2677 138.967 90.905L139.508 89.5341C139.517 89.5253 140.422 89.994 141.514 89.994ZM143.608 84.7757C143.608 83.1306 142.801 82.6972 141.816 82.6972C140.724 82.6972 140.112 83.4932 140.112 84.7049C140.112 85.9609 140.768 86.8984 141.931 86.8984C142.792 86.8984 143.608 86.4031 143.608 84.7757Z" fill="#6B6B6B"/>
<path d="M147.256 78.5049H149.049V86.0317C149.049 86.8277 149.315 87.0223 149.786 87.0223C149.928 87.0223 150.052 87.0046 150.052 87.0046V88.5789C150.052 88.5789 149.786 88.6231 149.484 88.6231C148.49 88.6231 147.256 88.3666 147.256 86.3058V78.5049Z" fill="#6B6B6B"/>
<path d="M154.551 81.1583C156.637 81.1583 157.764 82.6707 157.764 84.5811C157.764 84.7934 157.72 85.271 157.72 85.271H152.723C152.838 86.527 153.815 87.1814 154.897 87.1814C156.06 87.1814 156.983 86.3854 156.983 86.3854L157.675 87.6767C157.675 87.6767 156.566 88.7116 154.764 88.7116C152.359 88.7116 150.868 86.9869 150.868 84.9349C150.877 82.7149 152.395 81.1583 154.551 81.1583ZM155.945 84.0505C155.918 83.0775 155.306 82.5469 154.507 82.5469C153.584 82.5469 152.945 83.1129 152.776 84.0505H155.945Z" fill="#6B6B6B"/>
<path d="M167.5 78.328C169.976 78.328 171.254 79.6016 171.254 79.6016L170.349 80.9637C170.349 80.9637 169.266 79.9996 167.66 79.9996C165.406 79.9996 164.19 81.5563 164.19 83.4579C164.19 85.6425 165.681 87.0576 167.571 87.0576C169.089 87.0576 170.101 86.014 170.101 86.014V84.8376H168.556V83.2633H171.751V88.5612H170.189V88.0836C170.189 87.8713 170.207 87.6591 170.207 87.6591H170.181C170.181 87.6591 169.133 88.7381 167.252 88.7381C164.598 88.7381 162.308 86.6861 162.308 83.5286C162.308 80.5922 164.509 78.328 167.5 78.328Z" fill="#6B6B6B"/>
<path d="M173.775 78.5049H177.671C179.561 78.5049 180.884 79.8227 180.884 81.7774C180.884 83.7321 179.561 85.0941 177.671 85.0941H175.612V88.5612H173.784V78.5049H173.775ZM177.334 83.5021C178.399 83.5021 179.02 82.8211 179.02 81.7774C179.02 80.7426 178.399 80.0792 177.36 80.0792H175.612V83.5021H177.334Z" fill="#6B6B6B"/>
<path d="M182.357 78.5049H184.186V84.9438C184.186 86.2881 185.064 87.0576 186.413 87.0576C187.762 87.0576 188.659 86.2881 188.659 84.9349V78.5049H190.487V84.9438C190.487 87.1991 188.854 88.7204 186.422 88.7204C183.981 88.7204 182.348 87.1903 182.348 84.9438V78.5049H182.357Z" fill="#6B6B6B"/>
<path d="M201.368 85.9786H197.826L196.974 88.5524H195.084L198.634 78.5049H200.551L204.101 88.5524H202.211L201.368 85.9786ZM199.593 80.2384C199.593 80.2384 199.362 81.229 199.167 81.7951L198.27 84.4838H200.915L200.019 81.7951C199.832 81.229 199.619 80.2384 199.619 80.2384H199.593Z" fill="#6B6B6B"/>
<path d="M205.122 78.5049H206.924V81.6005C206.924 81.9543 206.897 82.2108 206.897 82.2108H206.924C206.924 82.2108 207.563 81.1671 209.098 81.1671C211.059 81.1671 212.311 82.7149 212.311 84.9438C212.311 87.2345 210.908 88.7204 208.983 88.7204C207.474 88.7204 206.826 87.6414 206.826 87.6414H206.79C206.79 87.6414 206.817 87.8536 206.817 88.1367V88.5435H205.113V78.5049H205.122ZM208.672 87.208C209.666 87.208 210.491 86.4031 210.491 84.9703C210.491 83.5994 209.755 82.7061 208.69 82.7061C207.749 82.7061 206.87 83.3871 206.87 84.988C206.861 86.1024 207.465 87.208 208.672 87.208Z" fill="#6B6B6B"/>
<path d="M214.006 86.4031C214.006 86.4031 214.805 87.1991 215.985 87.1991C216.5 87.1991 216.935 86.9692 216.935 86.5446C216.935 85.4656 213.411 85.6071 213.411 83.2898C213.411 81.9454 214.618 81.1671 216.18 81.1671C217.813 81.1671 218.612 81.9896 218.612 81.9896L217.947 83.3163C217.947 83.3163 217.281 82.6972 216.171 82.6972C215.701 82.6972 215.248 82.8918 215.248 83.3517C215.248 84.3688 218.772 84.245 218.772 86.5623C218.772 87.7652 217.725 88.7292 216.003 88.7292C214.201 88.7292 213.189 87.6679 213.189 87.6679L214.006 86.4031Z" fill="#6B6B6B"/>
<path d="M220.529 82.8741H219.588V81.4413H220.565V79.3628H222.322V81.4413H223.973V82.8741H222.322V85.6779C222.322 86.863 223.263 87.0399 223.76 87.0399C223.955 87.0399 224.088 87.0134 224.088 87.0134V88.5877C224.088 88.5877 223.875 88.632 223.538 88.632C222.526 88.632 220.529 88.3312 220.529 85.9167V82.8741Z" fill="#6B6B6B"/>
<path d="M225.57 81.3351H227.301V82.5822C227.301 82.8476 227.274 83.0952 227.274 83.0952H227.301C227.629 82.0604 228.49 81.2379 229.599 81.2379C229.768 81.2379 229.928 81.2644 229.928 81.2644V83.0333C229.928 83.0333 229.741 83.0068 229.502 83.0068C228.739 83.0068 227.869 83.449 227.523 84.5192C227.407 84.873 227.363 85.271 227.363 85.6955V88.5524H225.561V81.3351H225.57Z" fill="#6B6B6B"/>
<path d="M234.827 84.0239H235.067V83.9266C235.067 82.9803 234.472 82.653 233.673 82.653C232.635 82.653 231.685 83.3429 231.685 83.3429L231.002 82.0516C231.002 82.0516 232.12 81.1583 233.842 81.1583C235.75 81.1583 236.851 82.2019 236.851 84.0328V88.5524H235.191V87.9598C235.191 87.6767 235.218 87.4468 235.218 87.4468H235.191C235.209 87.4468 234.641 88.7204 232.99 88.7204C231.694 88.7204 230.531 87.9155 230.531 86.4739C230.54 84.1743 233.647 84.0239 234.827 84.0239ZM233.451 87.323C234.401 87.323 235.084 86.3058 235.084 85.4302V85.2622H234.774C233.851 85.2622 232.36 85.386 232.36 86.3943C232.351 86.8719 232.706 87.323 233.451 87.323Z" fill="#6B6B6B"/>
<path d="M242.14 81.1583C244.03 81.1583 244.927 82.2373 244.927 82.2373L244.128 83.4667C244.128 83.4667 243.374 82.6884 242.238 82.6884C240.906 82.6884 240.037 83.6967 240.037 84.9261C240.037 86.1466 240.915 87.1903 242.291 87.1903C243.516 87.1903 244.421 86.2705 244.421 86.2705L245.113 87.5441C245.113 87.5441 244.075 88.7204 242.131 88.7204C239.726 88.7204 238.199 87.0311 238.199 84.9438C238.208 82.8918 239.735 81.1583 242.14 81.1583Z" fill="#6B6B6B"/>
<path d="M246.782 82.8741H245.841V81.4413H246.817V79.3628H248.575V81.4413H250.225V82.8741H248.575V85.6779C248.575 86.863 249.515 87.0399 250.012 87.0399C250.208 87.0399 250.341 87.0134 250.341 87.0134V88.5877C250.341 88.5877 250.128 88.632 249.791 88.632C248.779 88.632 246.782 88.3312 246.782 85.9167V82.8741Z" fill="#6B6B6B"/>
<path d="M251.823 78.5049H253.616V80.1058H251.823V78.5049ZM251.823 81.3352H253.624V88.5524H251.823V81.3352Z" fill="#6B6B6B"/>
<path d="M259.047 81.1583C261.266 81.1583 263.041 82.7326 263.041 84.9349C263.041 87.1549 261.266 88.7116 259.065 88.7116C256.846 88.7116 255.071 87.1549 255.071 84.9349C255.071 82.7326 256.846 81.1583 259.047 81.1583ZM259.065 87.1903C260.227 87.1903 261.213 86.2793 261.213 84.9349C261.213 83.6082 260.236 82.6884 259.065 82.6884C257.884 82.6884 256.908 83.6082 256.908 84.9349C256.908 86.2881 257.884 87.1903 259.065 87.1903Z" fill="#6B6B6B"/>
<path d="M264.488 81.3352H266.218V82.1666C266.218 82.4319 266.192 82.6618 266.192 82.6618H266.218C266.529 82.0516 267.328 81.1583 268.792 81.1583C270.398 81.1583 271.304 81.9897 271.304 83.9089V88.5524H269.511V84.2804C269.511 83.4048 269.28 82.8034 268.357 82.8034C267.39 82.8034 266.68 83.4136 266.413 84.2804C266.316 84.5811 266.289 84.8995 266.289 85.2445V88.5612H264.488V81.3352Z" fill="#6B6B6B"/>
<path d="M56.3572 275.952V262.685C56.3572 260.244 58.3452 258.263 60.7947 258.263H328.824C331.273 258.263 333.261 260.244 333.261 262.685V275.952" stroke="#FF5700" stroke-width="2" stroke-miterlimit="10"/>
<path d="M148.658 258.263V275.952" stroke="#FF5700" stroke-width="2" stroke-miterlimit="10"/>
<path d="M240.96 258.263V275.952" stroke="#FF5700" stroke-width="2" stroke-miterlimit="10"/>
<path d="M194.809 236.151V258.263" stroke="#FF5700" stroke-width="2" stroke-miterlimit="10"/>
<path d="M194.809 100.829V122.94" stroke="#FF5700" stroke-width="2" stroke-miterlimit="10"/>
<path d="M274.685 30.0717H114.933V56.6056H274.685V30.0717Z" fill="#444444"/>
<path d="M138.558 39.4735H141.576C143.138 39.4735 144.274 40.4907 144.274 42.1004C144.274 43.719 143.147 44.7626 141.576 44.7626H139.41V48.1855H138.55V39.4735H138.558ZM141.469 44.002C142.641 44.002 143.395 43.2944 143.395 42.1092C143.395 40.9329 142.641 40.2519 141.478 40.2519H139.41V44.002H141.469Z" fill="#6B6B6B"/>
<path d="M145.135 49.751C145.135 49.751 145.481 50.034 145.88 50.034C146.431 50.034 146.812 49.5918 147.061 49.0169L147.442 48.1413L144.833 41.9589H145.765L147.602 46.505C147.726 46.8146 147.824 47.1595 147.824 47.1595H147.851C147.851 47.1595 147.939 46.8146 148.064 46.505L149.865 41.9589H150.788L147.709 49.4945C147.389 50.2905 146.741 50.7947 145.907 50.7947C145.259 50.7947 144.815 50.4232 144.815 50.4232L145.135 49.751Z" fill="#6B6B6B"/>
<path d="M153.14 40.243H149.99V39.4735H157.125V40.243H153.992V48.1855H153.131V40.243H153.14Z" fill="#6B6B6B"/>
<path d="M159.894 41.8085C161.722 41.8085 163.205 43.1971 163.205 45.0457C163.205 46.9296 161.722 48.3447 159.894 48.3447C158.066 48.3447 156.584 46.9296 156.584 45.0457C156.593 43.1883 158.066 41.8085 159.894 41.8085ZM159.894 47.5752C161.234 47.5752 162.335 46.4873 162.335 45.0368C162.335 43.6217 161.243 42.5692 159.894 42.5692C158.545 42.5692 157.454 43.6217 157.454 45.0368C157.462 46.4873 158.554 47.5752 159.894 47.5752Z" fill="#6B6B6B"/>
<path d="M164.776 41.95H165.61V43.0556C165.61 43.3298 165.583 43.5509 165.583 43.5509H165.61C165.912 42.6134 166.604 41.8881 167.589 41.8881C167.767 41.8881 167.926 41.9235 167.926 41.9235V42.7549C167.926 42.7549 167.775 42.7284 167.616 42.7284C166.728 42.7284 166.071 43.4182 165.796 44.3381C165.672 44.7361 165.619 45.1518 165.619 45.5498V48.1766H164.776V41.95Z" fill="#6B6B6B"/>
<path d="M171.973 41.8085C173.5 41.8085 174.263 42.7018 174.263 42.7018L173.828 43.3298C173.828 43.3298 173.136 42.578 172 42.578C170.633 42.578 169.559 43.5951 169.559 45.081C169.559 46.5404 170.642 47.5841 172.018 47.5841C173.287 47.5841 174.023 46.7085 174.023 46.7085L174.405 47.363C174.405 47.363 173.562 48.3447 171.964 48.3447C170.11 48.3447 168.681 47.018 168.681 45.0899C168.69 43.1529 170.136 41.8085 171.973 41.8085Z" fill="#6B6B6B"/>
<path d="M175.949 39.4735H176.793V42.8433C176.793 43.1264 176.766 43.3475 176.766 43.3475H176.793C177.032 42.7549 177.858 41.7997 179.278 41.7997C180.822 41.7997 181.363 42.6753 181.363 44.2143V48.1766H180.52V44.4354C180.52 43.4536 180.369 42.5868 179.162 42.5868C178.097 42.5868 177.174 43.321 176.89 44.3558C176.819 44.6034 176.793 44.8864 176.793 45.1872V48.1766H175.949V39.4735Z" fill="#6B6B6B"/>
<path d="M185.961 38.9959H186.742L183.6 48.7073H182.801L185.961 38.9959Z" fill="#6B6B6B"/>
<path d="M190.398 40.243H187.256V39.4735H194.392V40.243H191.259V48.1855H190.398V40.243Z" fill="#6B6B6B"/>
<path d="M196.957 41.8085C198.687 41.8085 199.566 43.1352 199.566 44.683C199.566 44.8334 199.539 45.1164 199.539 45.1164H194.738C194.774 46.7173 195.865 47.5841 197.161 47.5841C198.306 47.5841 199.06 46.8323 199.06 46.8323L199.442 47.4779C199.442 47.4779 198.537 48.3447 197.125 48.3447C195.262 48.3447 193.859 47.0092 193.859 45.0899C193.877 43.0291 195.271 41.8085 196.957 41.8085ZM198.714 44.4177C198.661 43.1175 197.871 42.5073 196.939 42.5073C195.892 42.5073 194.987 43.1618 194.791 44.4177H198.714Z" fill="#6B6B6B"/>
<path d="M201.181 41.95H202.016V42.8787C202.016 43.1529 201.989 43.374 201.989 43.374H202.016C202.238 42.808 203.036 41.7997 204.518 41.7997C206.063 41.7997 206.604 42.6753 206.604 44.2143V48.1767H205.761V44.4354C205.761 43.4536 205.61 42.5869 204.403 42.5869C203.338 42.5869 202.415 43.321 202.131 44.3469C202.06 44.6034 202.033 44.8953 202.033 45.1872V48.1767H201.19V41.95H201.181Z" fill="#6B6B6B"/>
<path d="M208.503 46.8234C208.503 46.8234 209.196 47.5752 210.367 47.5752C211.042 47.5752 211.627 47.2391 211.627 46.5846C211.627 45.2226 208.255 45.5586 208.255 43.5244C208.255 42.41 209.258 41.7997 210.394 41.7997C211.716 41.7997 212.32 42.4807 212.32 42.4807L211.938 43.1264C211.938 43.1264 211.405 42.5603 210.367 42.5603C209.737 42.5603 209.125 42.8345 209.125 43.5244C209.125 44.8953 212.497 44.5238 212.497 46.5846C212.497 47.6018 211.618 48.3359 210.358 48.3359C208.841 48.3359 208.042 47.4337 208.042 47.4337L208.503 46.8234Z" fill="#6B6B6B"/>
<path d="M216.899 41.8085C218.728 41.8085 220.21 43.1971 220.21 45.0457C220.21 46.9296 218.728 48.3447 216.899 48.3447C215.071 48.3447 213.589 46.9296 213.589 45.0457C213.598 43.1883 215.071 41.8085 216.899 41.8085ZM216.899 47.5752C218.239 47.5752 219.34 46.4873 219.34 45.0368C219.34 43.6217 218.248 42.5692 216.899 42.5692C215.55 42.5692 214.459 43.6217 214.459 45.0368C214.468 46.4873 215.559 47.5752 216.899 47.5752Z" fill="#6B6B6B"/>
<path d="M221.781 41.95H222.615V43.0556C222.615 43.3298 222.588 43.5509 222.588 43.5509H222.615C222.917 42.6134 223.609 41.8881 224.594 41.8881C224.771 41.8881 224.931 41.9235 224.931 41.9235V42.7549C224.931 42.7549 224.78 42.7284 224.621 42.7284C223.733 42.7284 223.076 43.4182 222.801 44.3381C222.677 44.7361 222.624 45.1518 222.624 45.5498V48.1766H221.781V41.95Z" fill="#6B6B6B"/>
<path d="M226.458 39.4735H231.055V40.243H227.31V43.5155H230.514V44.285H227.31V48.1855H226.449V39.4735H226.458Z" fill="#6B6B6B"/>
<path d="M232.528 39.4735H233.371V46.5227C233.371 47.3364 233.744 47.4602 234.064 47.4602C234.179 47.4602 234.277 47.4514 234.277 47.4514V48.2032C234.277 48.2032 234.126 48.2297 233.966 48.2297C233.442 48.2297 232.528 48.0705 232.528 46.7084V39.4735Z" fill="#6B6B6B"/>
<path d="M238.51 41.8085C240.338 41.8085 241.821 43.1971 241.821 45.0457C241.821 46.9296 240.338 48.3447 238.51 48.3447C236.682 48.3447 235.2 46.9296 235.2 45.0457C235.2 43.1883 236.682 41.8085 238.51 41.8085ZM238.51 47.5752C239.85 47.5752 240.951 46.4873 240.951 45.0368C240.951 43.6217 239.859 42.5692 238.51 42.5692C237.161 42.5692 236.078 43.6305 236.078 45.0368C236.078 46.4873 237.17 47.5752 238.51 47.5752Z" fill="#6B6B6B"/>
<path d="M242.584 41.95H243.48L244.998 46.5935C245.095 46.8942 245.184 47.2657 245.184 47.2657H245.211C245.211 47.2657 245.3 46.8942 245.397 46.5935L246.941 41.9766H247.776L249.32 46.5935C249.418 46.8942 249.506 47.2657 249.506 47.2657H249.533C249.533 47.2657 249.622 46.903 249.719 46.5935L251.237 41.95H252.133L250.021 48.1855H249.098L247.572 43.7543C247.456 43.4448 247.376 43.0822 247.376 43.0822H247.35C247.35 43.0822 247.261 43.4448 247.163 43.7543L245.637 48.1855H244.714L242.584 41.95Z" fill="#6B6B6B"/>
<path d="M274.685 0H114.933V26.5339H274.685V0Z" fill="#444444"/>
<path d="M158.634 15.3366H155.119L154.125 18.1138H153.22L156.424 9.40182H157.347L160.551 18.1138H159.646L158.634 15.3366ZM156.868 10.3128C156.868 10.3128 156.682 11.0292 156.531 11.4361L155.359 14.5936H158.368L157.223 11.4361C157.072 11.0292 156.886 10.3128 156.886 10.3128H156.868Z" fill="#6B6B6B"/>
<path d="M161.971 9.40182H162.832V18.1138H161.971V9.40182Z" fill="#6B6B6B"/>
<path d="M173.021 15.3366H169.506L168.512 18.1138H167.607L170.811 9.40182H171.734L174.938 18.1138H174.032L173.021 15.3366ZM171.254 10.3128C171.254 10.3128 171.068 11.0292 170.917 11.4361L169.746 14.5936H172.754L171.609 11.4361C171.458 11.0292 171.272 10.3128 171.272 10.3128H171.254Z" fill="#6B6B6B"/>
<path d="M176.109 11.8783H176.917V12.4886C176.917 12.7628 176.89 12.9751 176.89 12.9751H176.917C176.917 12.9751 177.423 11.7368 179.082 11.7368C180.76 11.7368 181.807 13.0724 181.807 15.0093C181.807 16.9817 180.627 18.2641 179.011 18.2641C177.511 18.2641 176.961 17.079 176.961 17.079H176.935C176.935 17.079 176.961 17.3001 176.961 17.6273V20.5991H176.118V11.8783H176.109ZM178.923 17.5212C180.032 17.5212 180.937 16.5925 180.937 15.0093C180.937 13.4881 180.13 12.5063 178.958 12.5063C177.911 12.5063 176.935 13.2492 176.935 15.0182C176.935 16.2653 177.627 17.5212 178.923 17.5212Z" fill="#6B6B6B"/>
<path d="M183.431 11.8783H184.239V12.4886C184.239 12.7628 184.212 12.9751 184.212 12.9751H184.239C184.239 12.9751 184.745 11.7368 186.404 11.7368C188.082 11.7368 189.129 13.0724 189.129 15.0093C189.129 16.9817 187.949 18.2641 186.333 18.2641C184.833 18.2641 184.283 17.079 184.283 17.079H184.257C184.257 17.079 184.283 17.3001 184.283 17.6273V20.5991H183.44V11.8783H183.431ZM186.236 17.5212C187.345 17.5212 188.25 16.5925 188.25 15.0093C188.25 13.4881 187.443 12.5063 186.271 12.5063C185.224 12.5063 184.248 13.2492 184.248 15.0182C184.248 16.2653 184.949 17.5212 186.236 17.5212Z" fill="#6B6B6B"/>
<path d="M190.682 9.40182H191.525V16.451C191.525 17.2647 191.898 17.3885 192.218 17.3885C192.333 17.3885 192.431 17.3797 192.431 17.3797V18.1315C192.431 18.1315 192.28 18.158 192.12 18.158C191.596 18.158 190.682 17.9988 190.682 16.6367V9.40182Z" fill="#6B6B6B"/>
<path d="M193.788 9.40182H194.676V10.4543H193.788V9.40182ZM193.815 11.8783H194.658V18.1138H193.815V11.8783Z" fill="#6B6B6B"/>
<path d="M199.548 11.7368C201.075 11.7368 201.838 12.6301 201.838 12.6301L201.403 13.2581C201.403 13.2581 200.711 12.5063 199.575 12.5063C198.208 12.5063 197.134 13.5234 197.134 15.0093C197.134 16.4687 198.217 17.5124 199.593 17.5124C200.862 17.5124 201.598 16.6367 201.598 16.6367L201.98 17.2912C201.98 17.2912 201.137 18.273 199.539 18.273C197.685 18.273 196.256 16.9463 196.256 15.0182C196.264 13.0812 197.702 11.7368 199.548 11.7368Z" fill="#6B6B6B"/>
<path d="M206.844 14.2575H207.19V14.0983C207.19 12.8955 206.533 12.4886 205.637 12.4886C204.607 12.4886 203.871 13.0812 203.871 13.0812L203.471 12.4355C203.471 12.4355 204.288 11.728 205.699 11.728C207.208 11.728 208.033 12.5594 208.033 14.116V18.1049H207.225V17.4239C207.225 17.1143 207.252 16.9021 207.252 16.9021H207.225C207.225 16.9021 206.702 18.2553 205.14 18.2553C204.093 18.2553 203.01 17.645 203.01 16.4068C203.01 14.3106 205.761 14.2575 206.844 14.2575ZM205.273 17.5477C206.462 17.5477 207.19 16.3095 207.19 15.2304V14.9563H206.826C205.841 14.9563 203.88 14.9916 203.88 16.3714C203.88 16.9463 204.341 17.5477 205.273 17.5477Z" fill="#6B6B6B"/>
<path d="M210.181 12.6655H209.364V11.9579H210.199V10.1625H211.033V11.9579H212.595V12.6655H211.033V15.7611C211.033 17.2205 211.965 17.4062 212.435 17.4062C212.613 17.4062 212.719 17.3797 212.719 17.3797V18.1315C212.719 18.1315 212.586 18.158 212.355 18.158C211.636 18.158 210.181 17.9192 210.181 15.8407V12.6655Z" fill="#6B6B6B"/>
<path d="M214.086 9.40182H214.965V10.4543H214.086V9.40182ZM214.104 11.8783H214.947V18.1138H214.104V11.8783Z" fill="#6B6B6B"/>
<path d="M219.837 11.7368C221.665 11.7368 223.147 13.1254 223.147 14.9739C223.147 16.8579 221.665 18.273 219.837 18.273C218.009 18.273 216.527 16.8579 216.527 14.9739C216.527 13.1166 218.009 11.7368 219.837 11.7368ZM219.837 17.5035C221.177 17.5035 222.278 16.4156 222.278 14.9651C222.278 13.55 221.186 12.4975 219.837 12.4975C218.488 12.4975 217.396 13.55 217.396 14.9651C217.396 16.4156 218.497 17.5035 219.837 17.5035Z" fill="#6B6B6B"/>
<path d="M224.718 11.8783H225.553V12.807C225.553 13.0812 225.526 13.3023 225.526 13.3023H225.553C225.774 12.7363 226.573 11.728 228.055 11.728C229.6 11.728 230.141 12.6036 230.141 14.1425V18.1049H229.298V14.3637C229.298 13.3819 229.147 12.5151 227.94 12.5151C226.875 12.5151 225.952 13.2492 225.668 14.2752C225.597 14.5317 225.57 14.8236 225.57 15.1155V18.1049H224.727V11.8783H224.718Z" fill="#6B6B6B"/>
<path d="M232.04 16.7517C232.04 16.7517 232.732 17.5035 233.904 17.5035C234.578 17.5035 235.164 17.1674 235.164 16.5129C235.164 15.1508 231.792 15.4869 231.792 13.4527C231.792 12.3382 232.795 11.728 233.931 11.728C235.253 11.728 235.856 12.409 235.856 12.409L235.475 13.0547C235.475 13.0547 234.942 12.4886 233.904 12.4886C233.274 12.4886 232.661 12.7628 232.661 13.4527C232.661 14.8236 236.034 14.4521 236.034 16.5129C236.034 17.53 235.155 18.2641 233.895 18.2641C232.377 18.2641 231.579 17.362 231.579 17.362L232.04 16.7517Z" fill="#6B6B6B"/>
<path d="M194.809 58.3745V65.4502" stroke="#999999" stroke-width="2" stroke-miterlimit="10"/>
</g>
<defs>
<clipPath id="clip0_10_4">
<rect width="430" height="333" fill="white"/>
</clipPath>
</defs>
</svg>
